<?xml version="1.0" encoding="UTF-8" standalone="no"?>
<svg
   xmlns:dc="http://purl.org/dc/elements/1.1/"
   xmlns:cc="http://creativecommons.org/ns#"
   xmlns:rdf="http://www.w3.org/1999/02/22-rdf-syntax-ns#"
   xmlns:svg="http://www.w3.org/2000/svg"
   xmlns="http://www.w3.org/2000/svg"
   style="fill:none"
   id="svg4"
   version="1.1"
   viewBox="0 0 215.02657 43.284142"
   height="43.284142"
   width="215.02657">
  <metadata
     id="metadata10">
    <rdf:RDF>
      <cc:Work
         rdf:about="">
        <dc:format>image/svg+xml</dc:format>
        <dc:type
           rdf:resource="http://purl.org/dc/dcmitype/StillImage" />
        <dc:title></dc:title>
      </cc:Work>
    </rdf:RDF>
  </metadata>
  <defs
     id="defs8">
    <filter
       id="filter1084"
       style="color-interpolation-filters:sRGB">
      <feFlood
         id="feFlood1074"
         result="flood"
         flood-color="rgb(68,68,68)"
         flood-opacity="0.2" />
      <feComposite
         id="feComposite1076"
         result="composite1"
         operator="in"
         in2="SourceGraphic"
         in="flood" />
      <feGaussianBlur
         id="feGaussianBlur1078"
         result="blur"
         stdDeviation="0.7"
         in="composite1" />
      <feOffset
         id="feOffset1080"
         result="offset"
         dy="2"
         dx="1.3" />
      <feComposite
         id="feComposite1082"
         result="composite2"
         operator="over"
         in2="offset"
         in="SourceGraphic" />
    </filter>
  </defs>
  <path
     style="fill:#6ab40d;filter:url(#filter1084)"
     id="path2"
     d="m 8.2368589,33.1154 c -0.408,0 -0.732,-0.108 -0.972,-0.324 -0.24,-0.24 -0.384,-0.528 -0.432,-0.864 l -3.924,-23.0039995 c -0.024,-0.072 -0.036,-0.156 -0.036,-0.252 0,-0.192 0.072,-0.36 0.216,-0.504 0.168,-0.168 0.348,-0.252 0.54,-0.252 h 4.464 c 0.672,0 1.044,0.264 1.116,0.792 L 11.548859,22.7474 l 2.592,-8.28 c 0.264,-0.648 0.66,-0.972 1.188,-0.972 h 2.592 c 0.6,0 0.996,0.324 1.188,0.972 l 2.592,8.28 2.34,-14.0399995 c 0.072,-0.528 0.444,-0.792 1.116,-0.792 h 4.464 c 0.216,0 0.396,0.084 0.54,0.252 0.168,0.144 0.252,0.312 0.252,0.504 l -0.036,0.252 -3.924,23.0039995 c -0.048,0.336 -0.204,0.624 -0.468,0.864 -0.24,0.216 -0.552,0.324 -0.936,0.324 h -3.42 c -0.384,0 -0.684,-0.096 -0.9,-0.288 -0.216,-0.192 -0.372,-0.408 -0.468,-0.648 l -3.636,-10.296 -3.636,10.296 c -0.216,0.624 -0.66,0.936 -1.332,0.936 z m 32.0572001,0.36 c -2.88,0 -5.148,-0.78 -6.804,-2.34 -1.656,-1.56 -2.52,-3.828 -2.592,-6.804 v -1.26 c 0.096,-2.832 0.972,-5.04 2.628,-6.624 1.68,-1.608 3.924,-2.412 6.732,-2.412 2.04,0 3.756,0.42 5.148,1.26 1.416,0.816 2.472,1.944 3.168,3.384 0.72,1.44 1.08,3.096 1.08,4.968 v 0.864 c 0,0.24 -0.084,0.456 -0.252,0.648 -0.168,0.168 -0.384,0.252 -0.648,0.252 h -11.52 v 0.252 c 0.048,1.128 0.324,2.04 0.828,2.736 0.504,0.696 1.236,1.044 2.196,1.044 0.6,0 1.092,-0.12 1.476,-0.36 0.384,-0.264 0.732,-0.576 1.044,-0.936 0.216,-0.264 0.384,-0.42 0.504,-0.468 0.144,-0.072 0.36,-0.108 0.648,-0.108 h 4.464 c 0.216,0 0.396,0.072 0.54,0.216 0.168,0.12 0.252,0.288 0.252,0.504 0,0.624 -0.36,1.344 -1.08,2.16 -0.696,0.816 -1.716,1.524 -3.06,2.124 -1.344,0.6 -2.928,0.9 -4.752,0.9 z m 3.024,-11.628 v -0.072 c 0,-1.176 -0.276,-2.1 -0.828,-2.772 -0.528,-0.696 -1.272,-1.044 -2.232,-1.044 -0.936,0 -1.68,0.348 -2.232,1.044 -0.528,0.672 -0.792,1.596 -0.792,2.772 v 0.072 z m 13.887,11.628 c -1.272,0 -2.436,-0.24 -3.492,-0.72 -1.032,-0.504 -1.848,-1.176 -2.448,-2.016 -0.576,-0.864 -0.864,-1.812 -0.864,-2.844 0,-1.656 0.672,-2.988 2.016,-3.996 1.368,-1.008 3.24,-1.704 5.616,-2.088 l 4.5,-0.684 v -0.504 c 0,-0.912 -0.192,-1.584 -0.576,-2.016 -0.384,-0.432 -1.032,-0.648 -1.944,-0.648 -0.552,0 -1.008,0.096 -1.368,0.288 -0.36,0.192 -0.732,0.456 -1.116,0.792 -0.336,0.288 -0.588,0.48 -0.756,0.576 -0.072,0.192 -0.204,0.288 -0.396,0.288 h -3.924 c -0.24,0 -0.444,-0.072 -0.612,-0.216 -0.144,-0.168 -0.204,-0.36 -0.18,-0.576 0.024,-0.648 0.336,-1.368 0.936,-2.16 0.624,-0.792 1.56,-1.476 2.808,-2.052 1.272,-0.576 2.832,-0.864 4.68,-0.864 2.952,0 5.136,0.66 6.551997,1.98 1.416,1.296 2.124,3.048 2.124,5.256 v 10.944 c 0,0.24 -0.084,0.456 -0.252,0.648 -0.168,0.168 -0.384,0.252 -0.648,0.252 h -4.175997 c -0.24,0 -0.456,-0.084 -0.648,-0.252 -0.168,-0.192 -0.252,-0.408 -0.252,-0.648 v -1.26 c -0.528,0.744 -1.272,1.356 -2.232,1.836 -0.936,0.456 -2.052,0.684 -3.348,0.684 z m 1.692,-4.104 c 1.104,0 1.992,-0.36 2.664,-1.08 0.696,-0.72 1.044,-1.776 1.044,-3.168 v -0.504 l -3.06,0.54 c -2.16,0.384 -3.24,1.14 -3.24,2.268 0,0.6 0.252,1.08 0.756,1.44 0.504,0.336 1.116,0.504 1.836,0.504 z m 21.921697,3.744 c -4.968,0 -7.452,-2.364 -7.452,-7.092 v -6.912 h -2.808 c -0.264,0 -0.492,-0.084 -0.684,-0.252 -0.168,-0.168 -0.252,-0.384 -0.252,-0.648 v -2.916 c 0,-0.264 0.084,-0.48 0.252,-0.648 0.192,-0.168 0.42,-0.252 0.684,-0.252 h 2.808 V 8.4554005 c 0,-0.264 0.084,-0.48 0.252,-0.648 0.192,-0.168 0.408,-0.252 0.648,-0.252 h 4.176 c 0.264,0 0.48,0.084 0.648,0.252 0.168,0.168 0.252,0.384 0.252,0.648 V 14.3954 h 4.5 c 0.264,0 0.48,0.084 0.648,0.252 0.192,0.168 0.288,0.384 0.288,0.648 v 2.916 c 0,0.264 -0.096,0.48 -0.288,0.648 -0.168,0.168 -0.384,0.252 -0.648,0.252 h -4.5 v 6.408 c 0,1.776 0.684,2.664 2.052,2.664 h 2.772 c 0.264,0 0.48,0.084 0.648,0.252 0.168,0.168 0.252,0.384 0.252,0.648 v 3.132 c 0,0.24 -0.084,0.456 -0.252,0.648 -0.168,0.168 -0.384,0.252 -0.648,0.252 z m 6.6887,0 c -0.24,0 -0.456,-0.084 -0.648,-0.252 -0.168,-0.192 -0.252,-0.408 -0.252,-0.648 V 8.4554005 c 0,-0.264 0.084,-0.48 0.252,-0.648 0.192,-0.168 0.408,-0.252 0.648,-0.252 h 4.608 c 0.264,0 0.48,0.084 0.648,0.252 0.168,0.168 0.252,0.384 0.252,0.648 V 16.4834 c 1.44,-1.632 3.336,-2.448 5.688,-2.448 1.392004,0 2.628004,0.312 3.708004,0.936 1.1044,0.624 1.9684,1.548 2.5924,2.772 0.624,1.224 0.936,2.7 0.936,4.428 v 10.044 c 0,0.24 -0.084,0.456 -0.252,0.648 -0.168,0.168 -0.384,0.252 -0.648,0.252 h -4.6444 c -0.24,0 -0.456004,-0.084 -0.648004,-0.252 -0.168,-0.192 -0.252,-0.408 -0.252,-0.648 v -9.828 c 0,-1.128 -0.276,-1.992 -0.828,-2.592 -0.528,-0.624 -1.308,-0.936 -2.34,-0.936 -1.032,0 -1.848,0.312 -2.448,0.936 -0.576,0.6 -0.864,1.464 -0.864,2.592 v 9.828 c 0,0.264 -0.084,0.48 -0.252,0.648 -0.168,0.168 -0.384,0.252 -0.648,0.252 z m 29.714404,0.36 c -2.88,0 -5.148,-0.78 -6.804,-2.34 -1.656,-1.56 -2.52,-3.828 -2.592,-6.804 v -1.26 c 0.096,-2.832 0.972,-5.04 2.628,-6.624 1.68,-1.608 3.924,-2.412 6.732,-2.412 2.04,0 3.756,0.42 5.148,1.26 1.416,0.816 2.472,1.944 3.168,3.384 0.72,1.44 1.08,3.096 1.08,4.968 v 0.864 c 0,0.24 -0.084,0.456 -0.252,0.648 -0.168,0.168 -0.384,0.252 -0.648,0.252 h -11.52 v 0.252 c 0.048,1.128 0.324,2.04 0.828,2.736 0.504,0.696 1.236,1.044 2.196,1.044 0.6,0 1.092,-0.12 1.476,-0.36 0.384,-0.264 0.732,-0.576 1.044,-0.936 0.216,-0.264 0.384,-0.42 0.504,-0.468 0.144,-0.072 0.36,-0.108 0.648,-0.108 h 4.464 c 0.216,0 0.396,0.072 0.54,0.216 0.168,0.12 0.252,0.288 0.252,0.504 0,0.624 -0.36,1.344 -1.08,2.16 -0.696,0.816 -1.716,1.524 -3.06,2.124 -1.344,0.6 -2.928,0.9 -4.752,0.9 z m 3.024,-11.628 v -0.072 c 0,-1.176 -0.276,-2.1 -0.828,-2.772 -0.528,-0.696 -1.272,-1.044 -2.232,-1.044 -0.936,0 -1.68,0.348 -2.232,1.044 -0.528,0.672 -0.792,1.596 -0.792,2.772 v 0.072 z m 9.171,11.268 c -0.264,0 -0.48,-0.084 -0.648,-0.252 -0.168,-0.168 -0.252,-0.384 -0.252,-0.648 v -16.92 c 0,-0.264 0.084,-0.48 0.252,-0.648 0.168,-0.168 0.384,-0.252 0.648,-0.252 h 4.14 c 0.264,0 0.48,0.096 0.648,0.288 0.192,0.168 0.288,0.372 0.288,0.612 v 1.44 c 1.32,-1.56 3.096,-2.34 5.328,-2.34 h 1.584 c 0.264,0 0.48,0.084 0.648,0.252 0.168,0.168 0.252,0.384 0.252,0.648 v 3.708 c 0,0.24 -0.084,0.456 -0.252,0.648 -0.168,0.168 -0.384,0.252 -0.648,0.252 h -3.492 c -0.984,0 -1.752,0.276 -2.304,0.828 -0.528,0.528 -0.792,1.284 -0.792,2.268 v 9.216 c 0,0.264 -0.096,0.48 -0.288,0.648 -0.168,0.168 -0.384,0.252 -0.648,0.252 z m 17.57,0 c -0.192,0 -0.372,-0.072 -0.54,-0.216 -0.144,-0.168 -0.216,-0.348 -0.216,-0.54 0,-0.144 0.012,-0.252 0.036,-0.324 l 8.46,-23.1119995 c 0.072,-0.288 0.228,-0.528 0.468,-0.72 0.24,-0.192 0.552,-0.288 0.936,-0.288 h 5.328 c 0.384,0 0.696,0.096 0.936,0.288 0.24,0.192 0.396,0.432 0.468,0.72 l 8.424,23.1119995 0.072,0.324 c 0,0.192 -0.084,0.372 -0.252,0.54 -0.144,0.144 -0.324,0.216 -0.54,0.216 h -4.428 c -0.576,0 -0.96,-0.252 -1.152,-0.756 l -1.404,-3.672 h -9.612 l -1.368,3.672 c -0.192,0.504 -0.588,0.756 -1.188,0.756 z m 15.156,-9.612 -3.348,-9.504 -3.348,9.504 z m 11.118,16.452 c -0.24,0 -0.456,-0.084 -0.648,-0.252 -0.168,-0.168 -0.252,-0.384 -0.252,-0.648 v -23.76 c 0,-0.264 0.084,-0.48 0.252,-0.648 0.192,-0.168 0.408,-0.252 0.648,-0.252 h 4.068 c 0.264,0 0.48,0.084 0.648,0.252 0.168,0.168 0.252,0.384 0.252,0.648 v 1.296 c 1.296,-1.704 3.156,-2.556 5.58,-2.556 2.352,0 4.188,0.732 5.508,2.196 1.32,1.464 2.04,3.528 2.16,6.192 0.024,0.312 0.036,0.756 0.036,1.332 0,0.576 -0.012,1.02 -0.036,1.332 -0.096,2.592 -0.816,4.644 -2.16,6.156 -1.344,1.488 -3.18,2.232 -5.508,2.232 -2.352,0 -4.104,-0.804 -5.256,-2.412 v 7.992 c 0,0.264 -0.084,0.48 -0.252,0.648 -0.168,0.168 -0.384,0.252 -0.648,0.252 z m 8.604,-11.304 c 1.128,0 1.932,-0.336 2.412,-1.008 0.504,-0.672 0.792,-1.596 0.864,-2.772 0.048,-0.48 0.072,-0.852 0.072,-1.116 0,-0.264 -0.024,-0.636 -0.072,-1.116 -0.072,-1.176 -0.36,-2.1 -0.864,-2.772 -0.48,-0.672 -1.284,-1.008 -2.412,-1.008 -1.104,0 -1.92,0.348 -2.448,1.044 -0.504,0.672 -0.792,1.548 -0.864,2.628 l -0.036,1.332 0.036,1.368 c 0.048,0.984 0.348,1.8 0.9,2.448 0.552,0.648 1.356,0.972 2.412,0.972 z m 12.667,11.304 c -0.24,0 -0.456,-0.084 -0.648,-0.252 -0.168,-0.168 -0.252,-0.384 -0.252,-0.648 v -23.76 c 0,-0.264 0.084,-0.48 0.252,-0.648 0.192,-0.168 0.408,-0.252 0.648,-0.252 h 4.068 c 0.264,0 0.48,0.084 0.648,0.252 0.168,0.168 0.252,0.384 0.252,0.648 v 1.296 c 1.296,-1.704 3.156,-2.556 5.58,-2.556 2.352,0 4.188,0.732 5.508,2.196 1.32,1.464 2.04,3.528 2.16,6.192 0.024,0.312 0.036,0.756 0.036,1.332 0,0.576 -0.012,1.02 -0.036,1.332 -0.096,2.592 -0.816,4.644 -2.16,6.156 -1.344,1.488 -3.18,2.232 -5.508,2.232 -2.352,0 -4.104,-0.804 -5.256,-2.412 v 7.992 c 0,0.264 -0.084,0.48 -0.252,0.648 -0.168,0.168 -0.384,0.252 -0.648,0.252 z m 8.604,-11.304 c 1.128,0 1.932,-0.336 2.412,-1.008 0.504,-0.672 0.792,-1.596 0.864,-2.772 0.048,-0.48 0.072,-0.852 0.072,-1.116 0,-0.264 -0.024,-0.636 -0.072,-1.116 -0.072,-1.176 -0.36,-2.1 -0.864,-2.772 -0.48,-0.672 -1.284,-1.008 -2.412,-1.008 -1.104,0 -1.92,0.348 -2.448,1.044 -0.504,0.672 -0.792,1.548 -0.864,2.628 l -0.036,1.332 0.036,1.368 c 0.048,0.984 0.348,1.8 0.9,2.448 0.552,0.648 1.356,0.972 2.412,0.972 z" />
  <text
     id="text52"
     y="-266.23413"
     x="127.89243"
     style="font-style:normal;font-variant:normal;font-weight:normal;font-stretch:normal;font-size:40px;line-height:1.25;font-family:sans-serif;-inkscape-font-specification:'sans-serif, Normal';font-variant-ligatures:normal;font-variant-caps:normal;font-variant-numeric:normal;text-align:start;letter-spacing:0px;word-spacing:0px;writing-mode:lr-tb;text-anchor:start;fill:#000000;fill-opacity:1;stroke:none"
     xml:space="preserve"><tspan
       y="-266.23413"
       x="127.89243"
       id="tspan50">szoveg</tspan></text>
</svg>
